<?xml version="1.0" encoding="UTF-8" standalone="no"?>
<svg
   clip-rule="evenodd"
   fill-rule="evenodd"
   stroke-linejoin="round"
   stroke-miterlimit="2"
   viewBox="0 0 24 24"
   version="1.1"
   id="svg4"
   sodipodi:docname="iconmonstr-eye-check-lined.svg"
   inkscape:version="1.2.2 (b0a8486541, 2022-12-01)"
   xmlns:inkscape="http://www.inkscape.org/namespaces/inkscape"
   xmlns:sodipodi="http://sodipodi.sourceforge.net/DTD/sodipodi-0.dtd"
   xmlns="http://www.w3.org/2000/svg"
   xmlns:svg="http://www.w3.org/2000/svg">
  <defs
     id="defs8">
    <filter
       style="color-interpolation-filters:sRGB;"
       inkscape:label="Invert"
       id="filter1575"
       x="0"
       y="0"
       width="1"
       height="1">
      <feColorMatrix
         type="hueRotate"
         values="180"
         result="color1"
         id="feColorMatrix1571" />
      <feColorMatrix
         values="-1 0 0 0 1 0 -1 0 0 1 0 0 -1 0 1 -0.21 -0.72 -0.07 1 0 "
         result="color2"
         id="feColorMatrix1573" />
    </filter>
  </defs>
  <sodipodi:namedview
     id="namedview6"
     pagecolor="#505050"
     bordercolor="#ffffff"
     borderopacity="1"
     inkscape:showpageshadow="0"
     inkscape:pageopacity="0"
     inkscape:pagecheckerboard="1"
     inkscape:deskcolor="#505050"
     showgrid="false"
     inkscape:zoom="42.791667"
     inkscape:cx="12.023369"
     inkscape:cy="12.023369"
     inkscape:window-width="2560"
     inkscape:window-height="1312"
     inkscape:window-x="0"
     inkscape:window-y="0"
     inkscape:window-maximized="1"
     inkscape:current-layer="svg4" />
  <path
     d="m17.5 11c2.484 0 4.5 2.016 4.5 4.5s-2.016 4.5-4.5 4.5-4.5-2.016-4.5-4.5 2.016-4.5 4.5-4.5zm-5.346 6.999c-.052.001-.104.001-.156.001-4.078 0-7.742-3.093-9.854-6.483-.096-.159-.144-.338-.144-.517s.049-.358.145-.517c2.111-3.39 5.775-6.483 9.853-6.483 4.143 0 7.796 3.09 9.864 6.493.092.156.138.332.138.507 0 .179-.062.349-.15.516-.58-.634-1.297-1.14-2.103-1.472-1.863-2.476-4.626-4.544-7.749-4.544-3.465 0-6.533 2.632-8.404 5.5 1.815 2.781 4.754 5.34 8.089 5.493.09.529.25 1.034.471 1.506zm3.071-2.023 1.442 1.285c.095.085.215.127.333.127.136 0 .271-.055.37-.162l2.441-2.669c.088-.096.131-.217.131-.336 0-.274-.221-.499-.5-.499-.136 0-.271.055-.37.162l-2.108 2.304-1.073-.956c-.096-.085-.214-.127-.333-.127-.277 0-.5.224-.5.499 0 .137.056.273.167.372zm-3.603-.994c-2.031-.19-3.622-1.902-3.622-3.982 0-2.208 1.792-4 4-4 1.804 0 3.331 1.197 3.829 2.84-.493.146-.959.354-1.389.615-.248-1.118-1.247-1.955-2.44-1.955-1.38 0-2.5 1.12-2.5 2.5 0 1.363 1.092 2.472 2.448 2.499-.169.47-.281.967-.326 1.483z"
     fill-rule="nonzero"
     id="path2"
     style="filter:url(#filter1575)" />
</svg>
