<?xml version="1.0" encoding="UTF-8" standalone="no"?>
<svg
   clip-rule="evenodd"
   fill-rule="evenodd"
   stroke-linejoin="round"
   stroke-miterlimit="2"
   viewBox="0 0 24 24"
   version="1.1"
   id="svg4"
   sodipodi:docname="iconmonstr-refresh-lined.svg"
   inkscape:version="1.2.2 (b0a8486541, 2022-12-01)"
   xmlns:inkscape="http://www.inkscape.org/namespaces/inkscape"
   xmlns:sodipodi="http://sodipodi.sourceforge.net/DTD/sodipodi-0.dtd"
   xmlns="http://www.w3.org/2000/svg"
   xmlns:svg="http://www.w3.org/2000/svg">
  <defs
     id="defs8">
    <filter
       style="color-interpolation-filters:sRGB;"
       inkscape:label="Invert"
       id="filter172"
       x="0"
       y="0"
       width="1"
       height="1">
      <feColorMatrix
         type="hueRotate"
         values="180"
         result="color1"
         id="feColorMatrix168" />
      <feColorMatrix
         values="-1 0 0 0 1 0 -1 0 0 1 0 0 -1 0 1 -0.21 -0.72 -0.07 2 0 "
         result="color2"
         id="feColorMatrix170" />
    </filter>
  </defs>
  <sodipodi:namedview
     id="namedview6"
     pagecolor="#ffffff"
     bordercolor="#000000"
     borderopacity="0.25"
     inkscape:showpageshadow="2"
     inkscape:pageopacity="0.0"
     inkscape:pagecheckerboard="0"
     inkscape:deskcolor="#d1d1d1"
     showgrid="false"
     inkscape:zoom="32.583333"
     inkscape:cx="12.046036"
     inkscape:cy="12.046036"
     inkscape:window-width="1920"
     inkscape:window-height="952"
     inkscape:window-x="0"
     inkscape:window-y="0"
     inkscape:window-maximized="1"
     inkscape:current-layer="svg4" />
  <path
     d="m21.897 13.404.008-.057v.002c.024-.178.044-.357.058-.537.024-.302-.189-.811-.749-.811-.391 0-.715.3-.747.69-.018.221-.044.44-.078.656-.645 4.051-4.158 7.153-8.391 7.153-3.037 0-5.704-1.597-7.206-3.995l1.991-.005c.414 0 .75-.336.75-.75s-.336-.75-.75-.75h-4.033c-.414 0-.75.336-.75.75v4.049c0 .414.336.75.75.75s.75-.335.75-.75l.003-2.525c1.765 2.836 4.911 4.726 8.495 4.726 5.042 0 9.217-3.741 9.899-8.596zm-19.774-2.974-.009.056v-.002c-.035.233-.063.469-.082.708-.024.302.189.811.749.811.391 0 .715-.3.747-.69.022-.28.058-.556.107-.827.716-3.968 4.189-6.982 8.362-6.982 3.037 0 5.704 1.597 7.206 3.995l-1.991.005c-.414 0-.75.336-.75.75s.336.75.75.75h4.033c.414 0 .75-.336.75-.75v-4.049c0-.414-.336-.75-.75-.75s-.75.335-.75.75l-.003 2.525c-1.765-2.836-4.911-4.726-8.495-4.726-4.984 0-9.12 3.654-9.874 8.426z"
     fill-rule="nonzero"
     id="path2"
     style="filter:url(#filter172)" />
</svg>
